<mxfile host="app.diagrams.net" modified="2023-06-01T22:04:32.483Z" agent="Mozilla/5.0 (Macintosh; Intel Mac OS X 10_15_7) AppleWebKit/537.36 (KHTML, like Gecko) Chrome/113.0.0.0 Safari/537.36" version="21.3.6" etag="kO9OP_WF8oX5txuhl_7i" type="github">
  <diagram name="Page-1" id="thHcSRKy6sSf3ZYZzcOE">
    <mxGraphModel>
      <root>
        <mxCell id="0" />
        <mxCell id="1" parent="0" />
      </root>
    </mxGraphModel>
  </diagram>
</mxfile>
